<svg width="100" height="134" viewBox="0 0 100 134" fill="none" xmlns="http://www.w3.org/2000/svg">
<g clip-path="url(#clip0_15_2116)">
<path d="M6.25 0H93.75C97.2005 0 100 2.79948 100 6.25V18.75C100 22.2005 97.2005 25 93.75 25H6.25C2.78646 25 0 22.2005 0 18.75V6.25C0 2.79948 2.78646 0 6.25 0Z" fill="black"/>
<path id="quarter" d="M62.5 108.333H91.6667V116.667C91.6667 125.833 84.1667 133.333 75 133.333H25C15.8333 133.333 8.33334 125.833 8.33334 116.667V108.333H62.5Z" fill="black"/>
<path id="half" d="M62.5 83.3333H91.6667V100H62.5C60.2083 100 58.3333 101.875 58.3333 104.167C58.3333 106.458 60.2083 108.333 62.5 108.333H91.6667V116.667C91.6667 125.833 84.1667 133.333 75 133.333H25C15.8333 133.333 8.33334 125.833 8.33334 116.667V83.3333H62.5Z" fill="black"/>
<path id="three-quarters" d="M62.5 58.3333H91.6667V75H62.5C60.2083 75 58.3333 76.875 58.3333 79.1667C58.3333 81.4583 60.2083 83.3333 62.5 83.3333H91.6667V100H62.5C60.2083 100 58.3333 101.875 58.3333 104.167C58.3333 106.458 60.2083 108.333 62.5 108.333H91.6667V116.667C91.6667 125.833 84.1667 133.333 75 133.333H25C15.8333 133.333 8.33334 125.833 8.33334 116.667V58.3333H62.5Z" fill="black"/>
<path id="full" d="M91.6667 50H62.5C60.2083 50 58.3333 51.875 58.3333 54.1667C58.3333 56.4583 60.2083 58.3333 62.5 58.3333H91.6667V75H62.5C60.2083 75 58.3333 76.875 58.3333 79.1667C58.3333 81.4583 60.2083 83.3333 62.5 83.3333H91.6667V100H62.5C60.2083 100 58.3333 101.875 58.3333 104.167C58.3333 106.458 60.2083 108.333 62.5 108.333H91.6667V116.667C91.6667 125.833 84.1667 133.333 75 133.333H25C15.8333 133.333 8.33334 125.833 8.33334 116.667V33.3333H91.6667V50ZM6.25 0H93.75C97.2005 0 100 2.79948 100 6.25V18.75C100 22.2005 97.2005 25 93.75 25H6.25C2.78646 25 0 22.2005 0 18.75V6.25C0 2.79948 2.78646 0 6.25 0Z" fill="black"/>
</g>
<defs>
<clipPath id="clip0_15_2116">
<rect width="100" height="133.333" fill="white" transform="matrix(-1 0 0 1 100 0)"/>
</clipPath>
</defs>
</svg>
